<mxfile host="app.diagrams.net" modified="2022-02-04T03:37:37.383Z" agent="5.0 (X11)" etag="SDxptm8SQWzK_26LMznS" version="16.5.3" type="github">
  <diagram id="WzLV_Ld3ufp8ydH-U0kP" name="Page-1">
    <mxGraphModel dx="868" dy="448" grid="1" gridSize="10" guides="1" tooltips="1" connect="1" arrows="1" fold="1" page="1" pageScale="1" pageWidth="850" pageHeight="1100" math="0" shadow="0">
      <root>
        <mxCell id="0" />
        <mxCell id="1" parent="0" />
        <mxCell id="qmwc27KqZD-VUeSQ0btq-1" value="" style="rounded=1;whiteSpace=wrap;html=1;" vertex="1" parent="1">
          <mxGeometry x="360" y="200" width="120" height="60" as="geometry" />
        </mxCell>
      </root>
    </mxGraphModel>
  </diagram>
</mxfile>
